<svg version="1.1" id="Layer_1" xmlns="http://www.w3.org/2000/svg" xmlns:xlink="http://www.w3.org/1999/xlink" x="0px" y="0px"
	 width="100%" viewBox="0 0 512 512" enable-background="new 0 0 512 512" xml:space="preserve">
<path fill="#020100" opacity="1.000000" stroke="none" 
	d="
M290.000000,513.000000 
	C193.356796,513.000000 97.213585,513.000000 1.035192,513.000000 
	C1.035192,342.398438 1.035192,171.796860 1.035192,1.097646 
	C171.559891,1.097646 342.119843,1.097646 512.839905,1.097646 
	C512.839905,171.666550 512.839905,342.333252 512.839905,513.000000 
	C438.796844,513.000000 364.648407,513.000000 290.000000,513.000000 
M145.559967,242.498093 
	C145.559967,235.049835 145.559967,227.601562 145.559967,219.780212 
	C137.910080,219.780212 130.435135,219.628189 122.969620,219.828156 
	C116.957100,219.989182 114.683769,222.548325 114.804947,228.650986 
	C115.013298,239.144241 115.394890,249.634094 115.591553,260.127472 
	C115.624786,261.900421 115.095047,263.683929 114.661026,266.546906 
	C112.002411,264.401978 110.330917,263.099396 108.709068,261.737671 
	C96.079369,251.133698 83.483704,240.489029 70.828079,229.916122 
	C61.389610,222.030960 50.462753,218.870331 38.286282,220.232437 
	C30.695772,221.081543 28.192776,224.040680 28.068275,231.608200 
	C27.753126,250.764206 27.419003,269.919891 27.099094,289.075836 
	C27.072418,290.673248 27.095568,292.271515 27.095568,294.075104 
	C35.152679,294.075104 42.636150,294.175446 50.115566,294.044281 
	C56.435440,293.933411 58.301189,291.869812 58.175854,285.392273 
	C57.969582,274.732483 57.610958,264.075134 57.481133,253.414764 
	C57.458733,251.575195 57.967846,248.304901 58.721699,248.154617 
	C60.757099,247.748856 63.142208,248.425186 65.221085,249.151520 
	C66.554367,249.617355 67.614655,250.904434 68.756866,251.871170 
	C82.235336,263.278778 95.745483,274.649475 109.163162,286.128204 
	C116.377518,292.300049 124.515015,295.121216 134.036453,294.078979 
	C141.509995,293.260925 144.665314,290.042206 144.813141,282.475677 
	C145.066986,269.483276 145.299423,256.490448 145.559967,242.498093 
M253.669250,230.829285 
	C232.057678,213.291168 198.979477,212.033737 176.276154,227.887253 
	C153.916000,243.501144 153.921875,270.450409 176.288788,286.120758 
	C196.840240,300.519165 227.298187,300.906250 248.488525,287.038239 
	C270.153687,272.859497 272.563080,249.424652 253.669250,230.829285 
M402.053101,232.452515 
	C389.473846,252.565063 376.894592,272.677582 363.795013,293.622040 
	C370.948547,293.622040 377.225403,293.363861 383.472351,293.685852 
	C391.725159,294.111176 397.264709,290.803040 401.226654,283.486572 
	C407.087311,272.663666 413.547058,262.163483 419.816376,251.564148 
	C423.385681,245.529694 427.779236,245.593018 431.366943,251.677856 
	C433.271790,254.908554 435.077606,258.197632 437.280914,262.082397 
	C433.999054,262.082397 431.503967,261.814148 429.096588,262.158722 
	C426.743469,262.495575 423.528229,262.733521 422.352478,264.278748 
	C418.588928,269.224945 415.595612,274.757141 411.836517,280.818481 
	C422.915009,280.818481 432.869263,280.979034 442.813629,280.735809 
	C446.547333,280.644470 448.553345,281.807037 450.753296,285.001526 
	C453.032898,288.311584 456.780151,292.256714 460.312805,292.729218 
	C468.717529,293.853271 477.374451,293.091309 486.395416,293.091309 
	C485.417236,291.391083 484.656830,289.965546 483.801941,288.599182 
	C471.973389,269.693390 458.886475,251.438797 448.689362,231.691635 
	C440.603729,216.033432 408.405792,215.063477 402.053101,232.452515 
M381.056244,227.628189 
	C382.415894,225.465378 383.775513,223.302551 385.544830,220.488037 
	C377.242920,220.488037 369.964020,220.371597 362.690765,220.523605 
	C356.489288,220.653229 352.158447,223.894272 349.091949,229.193787 
	C342.759949,240.136673 336.321381,251.018082 329.898926,261.908386 
	C325.936707,268.627014 321.796906,268.641357 317.888245,261.911255 
	C311.455597,250.835205 305.299683,239.590179 298.555908,228.708389 
	C296.662140,225.652603 293.318542,221.786530 290.297424,221.459824 
	C281.375000,220.494934 272.281158,221.115067 262.998413,221.115067 
	C263.572052,222.119080 264.025696,222.982239 264.541809,223.806274 
	C276.990509,243.681213 290.495789,262.990051 301.537109,283.617798 
	C309.104187,297.754822 339.004730,298.002533 346.653687,283.441772 
	C356.680511,264.354431 369.238312,246.596649 381.056244,227.628189 
z"/>
<path fill="#FBFBFB" opacity="1.000000" stroke="none" 
	d="
M145.550415,242.997955 
	C145.299423,256.490448 145.066986,269.483276 144.813141,282.475677 
	C144.665314,290.042206 141.509995,293.260925 134.036453,294.078979 
	C124.515015,295.121216 116.377518,292.300049 109.163162,286.128204 
	C95.745483,274.649475 82.235336,263.278778 68.756866,251.871170 
	C67.614655,250.904434 66.554367,249.617355 65.221085,249.151520 
	C63.142208,248.425186 60.757099,247.748856 58.721699,248.154617 
	C57.967846,248.304901 57.458733,251.575195 57.481133,253.414764 
	C57.610958,264.075134 57.969582,274.732483 58.175854,285.392273 
	C58.301189,291.869812 56.435440,293.933411 50.115566,294.044281 
	C42.636150,294.175446 35.152679,294.075104 27.095568,294.075104 
	C27.095568,292.271515 27.072418,290.673248 27.099094,289.075836 
	C27.419003,269.919891 27.753126,250.764206 28.068275,231.608200 
	C28.192776,224.040680 30.695772,221.081543 38.286282,220.232437 
	C50.462753,218.870331 61.389610,222.030960 70.828079,229.916122 
	C83.483704,240.489029 96.079369,251.133698 108.709068,261.737671 
	C110.330917,263.099396 112.002411,264.401978 114.661026,266.546906 
	C115.095047,263.683929 115.624786,261.900421 115.591553,260.127472 
	C115.394890,249.634094 115.013298,239.144241 114.804947,228.650986 
	C114.683769,222.548325 116.957100,219.989182 122.969620,219.828156 
	C130.435135,219.628189 137.910080,219.780212 145.559967,219.780212 
	C145.559967,227.601562 145.559967,235.049835 145.550415,242.997955 
z"/>
<path fill="#FBFBFB" opacity="1.000000" stroke="none" 
	d="
M253.945404,231.052399 
	C272.563080,249.424652 270.153687,272.859497 248.488525,287.038239 
	C227.298187,300.906250 196.840240,300.519165 176.288788,286.120758 
	C153.921875,270.450409 153.916000,243.501144 176.276154,227.887253 
	C198.979477,212.033737 232.057678,213.291168 253.945404,231.052399 
M226.185471,239.096497 
	C215.775497,235.135315 205.589844,235.778946 195.845978,241.048355 
	C189.719101,244.361710 185.109329,249.173355 185.104004,256.664856 
	C185.098618,264.247559 189.341980,269.533752 195.749313,272.916199 
	C206.952332,278.830322 218.437439,278.925964 229.747925,273.217255 
	C236.151276,269.985291 240.949677,265.062073 241.103516,257.427490 
	C241.261642,249.580322 236.488327,244.563232 230.061508,240.886276 
	C229.054199,240.309952 227.957901,239.889160 226.185471,239.096497 
z"/>
<path fill="#FAFAFA" opacity="1.000000" stroke="none" 
	d="
M402.240356,232.144760 
	C408.405792,215.063477 440.603729,216.033432 448.689362,231.691635 
	C458.886475,251.438797 471.973389,269.693390 483.801941,288.599182 
	C484.656830,289.965546 485.417236,291.391083 486.395416,293.091309 
	C477.374451,293.091309 468.717529,293.853271 460.312805,292.729218 
	C456.780151,292.256714 453.032898,288.311584 450.753296,285.001526 
	C448.553345,281.807037 446.547333,280.644470 442.813629,280.735809 
	C432.869263,280.979034 422.915009,280.818481 411.836517,280.818481 
	C415.595612,274.757141 418.588928,269.224945 422.352478,264.278748 
	C423.528229,262.733521 426.743469,262.495575 429.096588,262.158722 
	C431.503967,261.814148 433.999054,262.082397 437.280914,262.082397 
	C435.077606,258.197632 433.271790,254.908554 431.366943,251.677856 
	C427.779236,245.593018 423.385681,245.529694 419.816376,251.564148 
	C413.547058,262.163483 407.087311,272.663666 401.226654,283.486572 
	C397.264709,290.803040 391.725159,294.111176 383.472351,293.685852 
	C377.225403,293.363861 370.948547,293.622040 363.795013,293.622040 
	C376.894592,272.677582 389.473846,252.565063 402.240356,232.144760 
z"/>
<path fill="#FAFAFA" opacity="1.000000" stroke="none" 
	d="
M380.881866,227.947601 
	C369.238312,246.596649 356.680511,264.354431 346.653687,283.441772 
	C339.004730,298.002533 309.104187,297.754822 301.537109,283.617798 
	C290.495789,262.990051 276.990509,243.681213 264.541809,223.806274 
	C264.025696,222.982239 263.572052,222.119080 262.998413,221.115067 
	C272.281158,221.115067 281.375000,220.494934 290.297424,221.459824 
	C293.318542,221.786530 296.662140,225.652603 298.555908,228.708389 
	C305.299683,239.590179 311.455597,250.835205 317.888245,261.911255 
	C321.796906,268.641357 325.936707,268.627014 329.898926,261.908386 
	C336.321381,251.018082 342.759949,240.136673 349.091949,229.193787 
	C352.158447,223.894272 356.489288,220.653229 362.690765,220.523605 
	C369.964020,220.371597 377.242920,220.488037 385.544830,220.488037 
	C383.775513,223.302551 382.415894,225.465378 380.881866,227.947601 
z"/>
<path fill="#070605" opacity="1.000000" stroke="none" 
	d="
M226.544113,239.246460 
	C227.957901,239.889160 229.054199,240.309952 230.061508,240.886276 
	C236.488327,244.563232 241.261642,249.580322 241.103516,257.427490 
	C240.949677,265.062073 236.151276,269.985291 229.747925,273.217255 
	C218.437439,278.925964 206.952332,278.830322 195.749313,272.916199 
	C189.341980,269.533752 185.098618,264.247559 185.104004,256.664856 
	C185.109329,249.173355 189.719101,244.361710 195.845978,241.048355 
	C205.589844,235.778946 215.775497,235.135315 226.544113,239.246460 
z"/>
</svg>